<?xml version="1.0" standalone="no"?>
<!DOCTYPE svg PUBLIC "-//W3C//DTD SVG 20010904//EN"
 "http://www.w3.org/TR/2001/REC-SVG-20010904/DTD/svg10.dtd">
<svg version="1.0" xmlns="http://www.w3.org/2000/svg"
 width="220.000000pt" height="220.000000pt" viewBox="0 0 220.000000 220.000000"
 preserveAspectRatio="xMidYMid meet">
<metadata>
Created by potrace 1.11, written by Peter Selinger 2001-2013
</metadata>
<g transform="translate(0.000000,220.000000) scale(0.100000,-0.100000)"
fill="#000000" stroke="none">
<path d="M165 2181 c-90 -42 -115 -97 -115 -260 l0 -119 560 0 c308 0 560 2
560 5 0 2 -12 16 -26 31 -52 54 -65 102 -67 237 l-1 125 -436 0 c-402 0 -438
-2 -475 -19z m223 -114 c7 -5 12 -31 12 -68 0 -67 -3 -70 -73 -74 -67 -3 -77
7 -77 73 0 32 5 63 11 69 13 13 106 12 127 0z m261 -6 c10 -15 7 -118 -3 -128
-8 -8 -123 -9 -131 -2 -2 3 -6 31 -9 63 -5 75 7 87 80 83 31 -2 59 -9 63 -16z
m249 5 c14 -9 16 -104 2 -126 -6 -10 -26 -14 -70 -14 -33 1 -62 3 -65 6 -5 5
-8 65 -6 110 1 16 8 28 19 31 26 6 106 2 120 -7z"/>
<path d="M1124 2068 c3 -133 11 -161 63 -210 46 -44 88 -55 211 -56 61 -1 112
2 112 6 0 8 -374 382 -382 382 -3 0 -5 -55 -4 -122z"/>
<path d="M52 1141 l3 -619 30 -43 c43 -61 97 -85 188 -85 l72 1 3 163 c2 161
2 164 -22 193 -35 42 -38 71 -34 311 4 227 8 247 62 306 50 56 88 66 266 68
91 1 171 3 178 3 8 1 12 21 12 64 1 88 25 138 87 174 l48 28 280 2 c154 1 283
2 288 2 4 1 7 12 7 26 l0 25 -735 0 -735 0 2 -619z"/>
<path d="M925 1642 c-49 -30 -69 -69 -71 -139 -1 -41 2 -63 10 -64 12 -1 74
-1 94 0 7 1 12 17 12 45 0 24 6 48 13 53 7 6 118 10 272 9 l260 -1 3 -52 c2
-29 6 -53 10 -54 25 -4 89 -4 100 -1 17 6 16 106 -2 140 -8 15 -26 38 -41 52
l-27 25 -301 3 c-281 2 -304 1 -332 -16z"/>
<path d="M1022 1465 l3 -29 218 -1 c136 0 221 4 225 10 12 19 12 45 -1 46 -6
1 -110 2 -230 3 l-218 1 3 -30z"/>
<path d="M450 1379 c-14 -6 -38 -22 -53 -37 -52 -49 -57 -75 -57 -306 0 -181
3 -216 18 -246 21 -44 68 -67 152 -75 36 -3 72 -8 80 -10 8 -2 40 -7 70 -10
30 -3 66 -8 80 -10 14 -2 102 -14 195 -25 94 -12 174 -26 180 -31 5 -5 18 -9
30 -9 15 0 21 -7 23 -27 2 -28 31 -58 64 -66 31 -8 82 25 92 61 5 19 15 32 25
32 10 0 21 4 26 9 10 10 35 15 120 26 28 3 84 10 125 15 41 5 98 12 125 15 28
3 79 10 115 15 36 5 94 12 130 15 74 8 109 23 139 61 20 25 21 39 21 257 0
227 0 231 -25 273 -16 28 -39 49 -68 63 -43 21 -51 21 -813 20 -484 0 -778 -4
-794 -10z"/>
<path d="M2069 686 c-2 -2 -29 -7 -59 -10 -30 -4 -66 -9 -80 -11 -14 -2 -47
-7 -75 -10 -42 -5 -151 -19 -315 -40 -19 -3 -53 -7 -75 -10 -55 -6 -93 -24
-100 -44 -3 -10 -19 -31 -36 -47 -55 -53 -160 -34 -196 36 -17 35 -36 41 -153
55 -69 8 -122 15 -150 20 -14 2 -47 7 -75 10 -59 6 -133 16 -159 21 -39 7
-132 17 -166 18 l-35 1 0 -265 c0 -279 4 -311 47 -357 49 -54 31 -53 808 -53
697 0 722 1 759 20 22 11 50 36 62 57 24 37 24 42 25 326 1 217 -2 287 -11
287 -6 0 -14 -2 -16 -4z"/>
</g>
</svg>
